HIERARCHY
ROOT newVegas:Hips
{
	OFFSET 0.000000 96.479958 0.000000
	CHANNELS 6 Xposition Yposition Zposition Xrotation Yrotation Zrotation
	JOINT newVegas:Pelvis
	{
		OFFSET 0.000000 0.000000 0.000000
		CHANNELS 3 Xrotation Yrotation Zrotation
		JOINT newVegas:LeftUpLeg
		{
			OFFSET 18.735201 -5.666702 -4.541200
			CHANNELS 3 Xrotation Yrotation Zrotation
			JOINT newVegas:LeftLeg
			{
				OFFSET -0.021200 -31.938179 0.493100
				CHANNELS 3 Xrotation Yrotation Zrotation
				JOINT newVegas:LeftFoot
				{
					OFFSET 0.021200 -31.938179 -4.336299
					CHANNELS 3 Xrotation Yrotation Zrotation
					JOINT newVegas:LeftToeBase
					{
						OFFSET 0.943001 -26.722000 15.023500
						CHANNELS 3 Xrotation Yrotation Zrotation
						End Site
						{
							OFFSET 0.000000 30.670183 0.000000
						}
					}
				}
				JOINT newVegas:Left_PantLeg
				{
					OFFSET 0.663870 -9.044666 -1.108900
					CHANNELS 3 Xrotation Yrotation Zrotation
					End Site
					{
						OFFSET 1.415995 20.635357 0.000000
					}
				}
			}
		}
		JOINT newVegas:RightUpLeg
		{
			OFFSET -18.735201 -5.666702 -4.541200
			CHANNELS 3 Xrotation Yrotation Zrotation
			JOINT newVegas:RightLeg
			{
				OFFSET 0.018946 -31.938133 0.493100
				CHANNELS 3 Xrotation Yrotation Zrotation
				JOINT newVegas:RightFoot
				{
					OFFSET -0.018946 -31.938126 -4.336299
					CHANNELS 3 Xrotation Yrotation Zrotation
					JOINT newVegas:RightToeBase
					{
						OFFSET -0.943001 -26.722004 15.023500
						CHANNELS 3 Xrotation Yrotation Zrotation
						End Site
						{
							OFFSET 0.000000 30.670187 0.000000
						}
					}
				}
				JOINT newVegas:Right_PantLeg
				{
					OFFSET -0.661674 -9.044716 -1.108900
					CHANNELS 3 Xrotation Yrotation Zrotation
					End Site
					{
						OFFSET -1.415958 20.635269 0.000000
					}
				}
			}
		}
	}
	JOINT newVegas:Spine
	{
		OFFSET 0.000000 10.199997 -0.299500
		CHANNELS 3 Xrotation Yrotation Zrotation
		JOINT newVegas:Spine1
		{
			OFFSET 0.000000 11.900002 -1.516600
			CHANNELS 3 Xrotation Yrotation Zrotation
			JOINT newVegas:Spine2
			{
				OFFSET 0.000000 13.600006 -2.842500
				CHANNELS 3 Xrotation Yrotation Zrotation
				JOINT newVegas:Neck
				{
					OFFSET 0.000000 9.624100 -2.890100
					CHANNELS 3 Xrotation Yrotation Zrotation
					JOINT newVegas:Head
					{
						OFFSET 0.000000 14.068802 -1.351900
						CHANNELS 3 Xrotation Yrotation Zrotation
						JOINT newVegas:Hair_Back
						{
							OFFSET 0.000000 3.231903 -17.524799
							CHANNELS 3 Xrotation Yrotation Zrotation
							End Site
							{
								OFFSET 0.000000 19.849884 0.000000
							}
						}
						JOINT newVegas:Hair_Front
						{
							OFFSET 0.000000 31.260406 4.573800
							CHANNELS 3 Xrotation Yrotation Zrotation
							JOINT newVegas:Hair_Front1
							{
								OFFSET 0.000000 2.284103 11.993300
								CHANNELS 3 Xrotation Yrotation Zrotation
								JOINT newVegas:Hair_Front2
								{
									OFFSET 0.000000 2.284103 11.993300
									CHANNELS 3 Xrotation Yrotation Zrotation
									End Site
									{
										OFFSET 0.000000 12.208862 0.000000
									}
								}
							}
						}
						JOINT newVegas:Jowel
						{
							OFFSET 0.000000 -7.458206 6.864100
							CHANNELS 3 Xrotation Yrotation Zrotation
							End Site
							{
								OFFSET 0.000000 19.849884 0.000000
							}
						}
					}
				}
				JOINT newVegas:LeftShoulder
				{
					OFFSET 15.263000 10.923401 -0.547700
					CHANNELS 3 Xrotation Yrotation Zrotation
					JOINT newVegas:LeftArm
					{
						OFFSET 25.438599 -2.830597 -13.032500
						CHANNELS 3 Xrotation Yrotation Zrotation
						JOINT newVegas:LeftForeArm
						{
							OFFSET 29.960503 0.000000 0.000000
							CHANNELS 3 Xrotation Yrotation Zrotation
							JOINT newVegas:LeftHand
							{
								OFFSET 27.849251 0.000000 0.000000
								CHANNELS 3 Xrotation Yrotation Zrotation
								JOINT newVegas:LeftHandThumb1
								{
									OFFSET 4.487587 -3.305161 6.305391
									CHANNELS 3 Xrotation Yrotation Zrotation
									JOINT newVegas:LeftHandThumb2
									{
										OFFSET 5.480453 -3.164139 3.164143
										CHANNELS 3 Xrotation Yrotation Zrotation
										JOINT newVegas:LeftHandThumb3
										{
											OFFSET 5.159721 -2.978973 2.978967
											CHANNELS 3 Xrotation Yrotation Zrotation
											End Site
											{
												OFFSET 2.494507 5.926697 1.738678
											}
										}
									}
								}
								JOINT newVegas:LeftHandIndex1
								{
									OFFSET 18.578728 -0.527832 5.208049
									CHANNELS 3 Xrotation Yrotation Zrotation
									JOINT newVegas:LeftHandIndex2
									{
										OFFSET 3.192009 0.000000 0.000000
										CHANNELS 3 Xrotation Yrotation Zrotation
										JOINT newVegas:LeftHandIndex3
										{
											OFFSET 3.835129 0.000000 0.000000
											CHANNELS 3 Xrotation Yrotation Zrotation
											End Site
											{
												OFFSET -0.034599 3.816971 0.371180
											}
										}
									}
								}
								JOINT newVegas:LeftHandMiddle1
								{
									OFFSET 18.476105 0.000000 0.000000
									CHANNELS 3 Xrotation Yrotation Zrotation
									JOINT newVegas:LeftHandMiddle2
									{
										OFFSET 3.324875 0.000000 0.000000
										CHANNELS 3 Xrotation Yrotation Zrotation
										JOINT newVegas:LeftHandMiddle3
										{
											OFFSET 4.596550 0.000000 0.000000
											CHANNELS 3 Xrotation Yrotation Zrotation
											End Site
											{
												OFFSET 0.057701 4.578827 0.399218
											}
										}
									}
								}
								JOINT newVegas:LeftHandRing1
								{
									OFFSET 17.732719 0.121887 -4.201567
									CHANNELS 3 Xrotation Yrotation Zrotation
									JOINT newVegas:LeftHandRing2
									{
										OFFSET 2.733170 0.000000 0.000000
										CHANNELS 3 Xrotation Yrotation Zrotation
										JOINT newVegas:LeftHandRing3
										{
											OFFSET 3.178268 0.000000 0.000000
											CHANNELS 3 Xrotation Yrotation Zrotation
											End Site
											{
												OFFSET 0.119102 3.170624 0.185394
											}
										}
									}
								}
								JOINT newVegas:LeftHandPinky1
								{
									OFFSET 15.989624 -0.606689 -7.535461
									CHANNELS 3 Xrotation Yrotation Zrotation
									JOINT newVegas:LeftHandPinky2
									{
										OFFSET 2.538986 0.000000 0.000000
										CHANNELS 3 Xrotation Yrotation Zrotation
										JOINT newVegas:LeftHandPinky3
										{
											OFFSET 2.593102 0.000000 0.000000
											CHANNELS 3 Xrotation Yrotation Zrotation
											End Site
											{
												OFFSET -0.150902 2.584198 0.152708
											}
										}
									}
								}
							}
							JOINT newVegas:Left_Sleeve
							{
								OFFSET 0.267448 -0.649796 0.577675
								CHANNELS 3 Xrotation Yrotation Zrotation
								End Site
								{
									OFFSET 0.000000 15.991241 0.000000
								}
							}
							JOINT newVegas:Left_CapeC
							{
								OFFSET 15.715958 -8.608795 -6.935905
								CHANNELS 3 Xrotation Yrotation Zrotation
								JOINT newVegas:Left_CapeC1
								{
									OFFSET 0.000000 -8.688499 0.000000
									CHANNELS 3 Xrotation Yrotation Zrotation
									End Site
									{
										OFFSET 0.000000 8.688499 0.000000
									}
								}
							}
						}
						JOINT newVegas:Left_CapeB
						{
							OFFSET 26.118385 -8.608795 -7.079235
							CHANNELS 3 Xrotation Yrotation Zrotation
							JOINT newVegas:Left_CapeB1
							{
								OFFSET 0.000000 -8.688499 0.000000
								CHANNELS 3 Xrotation Yrotation Zrotation
								End Site
								{
									OFFSET 0.000000 8.688499 0.000000
								}
							}
						}
						JOINT newVegas:Left_CapeA
						{
							OFFSET 5.115639 -8.608795 -10.395809
							CHANNELS 3 Xrotation Yrotation Zrotation
							JOINT newVegas:Left_CapeA1
							{
								OFFSET 0.000000 -8.688499 0.000000
								CHANNELS 3 Xrotation Yrotation Zrotation
								End Site
								{
									OFFSET 0.000000 8.688499 0.000000
								}
							}
						}
					}
				}
				JOINT newVegas:RightShoulder
				{
					OFFSET -15.263000 10.923401 -0.547700
					CHANNELS 3 Xrotation Yrotation Zrotation
					JOINT newVegas:RightArm
					{
						OFFSET -25.438599 -2.830597 -13.032500
						CHANNELS 3 Xrotation Yrotation Zrotation
						JOINT newVegas:RightForeArm
						{
							OFFSET -29.960503 0.000000 0.000000
							CHANNELS 3 Xrotation Yrotation Zrotation
							JOINT newVegas:RightHand
							{
								OFFSET -27.849251 0.000000 0.000000
								CHANNELS 3 Xrotation Yrotation Zrotation
								JOINT newVegas:RightHandThumb1
								{
									OFFSET -4.487587 -3.305161 6.305391
									CHANNELS 3 Xrotation Yrotation Zrotation
									JOINT newVegas:RightHandThumb2
									{
										OFFSET -5.480453 -3.164139 3.164143
										CHANNELS 3 Xrotation Yrotation Zrotation
										JOINT newVegas:RightHandThumb3
										{
											OFFSET -5.159721 -2.978973 2.978967
											CHANNELS 3 Xrotation Yrotation Zrotation
											End Site
											{
												OFFSET -2.494507 5.926697 1.738678
											}
										}
									}
								}
								JOINT newVegas:RightHandIndex1
								{
									OFFSET -18.578728 -0.527832 5.208049
									CHANNELS 3 Xrotation Yrotation Zrotation
									JOINT newVegas:RightHandIndex2
									{
										OFFSET -3.192009 0.000000 0.000000
										CHANNELS 3 Xrotation Yrotation Zrotation
										JOINT newVegas:RightHandIndex3
										{
											OFFSET -3.835129 0.000000 0.000000
											CHANNELS 3 Xrotation Yrotation Zrotation
											End Site
											{
												OFFSET 0.034599 3.816971 0.371180
											}
										}
									}
								}
								JOINT newVegas:RightHandMiddle1
								{
									OFFSET -18.476105 0.000000 0.000000
									CHANNELS 3 Xrotation Yrotation Zrotation
									JOINT newVegas:RightHandMiddle2
									{
										OFFSET -3.324875 0.000000 0.000000
										CHANNELS 3 Xrotation Yrotation Zrotation
										JOINT newVegas:RightHandMiddle3
										{
											OFFSET -4.596550 0.000000 0.000000
											CHANNELS 3 Xrotation Yrotation Zrotation
											End Site
											{
												OFFSET -0.057701 4.578827 0.399218
											}
										}
									}
								}
								JOINT newVegas:RightHandRing1
								{
									OFFSET -17.732719 0.121887 -4.201567
									CHANNELS 3 Xrotation Yrotation Zrotation
									JOINT newVegas:RightHandRing2
									{
										OFFSET -2.733170 0.000000 0.000000
										CHANNELS 3 Xrotation Yrotation Zrotation
										JOINT newVegas:RightHandRing3
										{
											OFFSET -3.178268 0.000000 0.000000
											CHANNELS 3 Xrotation Yrotation Zrotation
											End Site
											{
												OFFSET -0.119102 3.170624 0.185394
											}
										}
									}
								}
								JOINT newVegas:RightHandPinky1
								{
									OFFSET -15.989624 -0.606689 -7.535461
									CHANNELS 3 Xrotation Yrotation Zrotation
									JOINT newVegas:RightHandPinky2
									{
										OFFSET -2.538986 0.000000 0.000000
										CHANNELS 3 Xrotation Yrotation Zrotation
										JOINT newVegas:RightHandPinky3
										{
											OFFSET -2.593102 0.000000 0.000000
											CHANNELS 3 Xrotation Yrotation Zrotation
											End Site
											{
												OFFSET 0.150902 2.584198 0.152708
											}
										}
									}
								}
							}
							JOINT newVegas:Right_CapeC
							{
								OFFSET -15.715958 -8.608795 -6.935905
								CHANNELS 3 Xrotation Yrotation Zrotation
								JOINT newVegas:Right_CapeC1
								{
									OFFSET 0.000000 -8.688499 0.000000
									CHANNELS 3 Xrotation Yrotation Zrotation
									End Site
									{
										OFFSET 0.000000 8.688499 0.000000
									}
								}
							}
							JOINT newVegas:Right_Sleeve
							{
								OFFSET -0.267448 -0.649994 0.577675
								CHANNELS 3 Xrotation Yrotation Zrotation
								End Site
								{
									OFFSET 0.000000 15.991302 0.000000
								}
							}
						}
						JOINT newVegas:Right_CapeA
						{
							OFFSET -5.115540 -8.608795 -10.395824
							CHANNELS 3 Xrotation Yrotation Zrotation
							JOINT newVegas:Right_CapeA1
							{
								OFFSET 0.000000 -8.688499 0.000000
								CHANNELS 3 Xrotation Yrotation Zrotation
								End Site
								{
									OFFSET 0.000000 8.688499 0.000000
								}
							}
						}
						JOINT newVegas:Right_CapeB
						{
							OFFSET -26.118187 -8.608795 -7.079266
							CHANNELS 3 Xrotation Yrotation Zrotation
							JOINT newVegas:Right_CapeB1
							{
								OFFSET 0.000000 -8.688499 0.000000
								CHANNELS 3 Xrotation Yrotation Zrotation
								End Site
								{
									OFFSET 0.000000 8.688499 0.000000
								}
							}
						}
					}
				}
				JOINT newVegas:Left_Collar
				{
					OFFSET 18.625099 8.655502 8.828100
					CHANNELS 3 Xrotation Yrotation Zrotation
					JOINT newVegas:Left_Collar1
					{
						OFFSET 14.783401 10.540405 -1.259500
						CHANNELS 3 Xrotation Yrotation Zrotation
						End Site
						{
							OFFSET 0.000000 18.199875 0.000000
						}
					}
				}
				JOINT newVegas:Collar_Back
				{
					OFFSET 0.000000 15.630707 -20.132601
					CHANNELS 3 Xrotation Yrotation Zrotation
					End Site
					{
						OFFSET 0.000000 22.523010 0.000000
					}
				}
				JOINT newVegas:Left_Peck
				{
					OFFSET 17.239599 -5.132599 25.482599
					CHANNELS 3 Xrotation Yrotation Zrotation
					End Site
					{
						OFFSET 0.000000 22.523010 0.000000
					}
				}
				JOINT newVegas:Right_Peck
				{
					OFFSET -17.239599 -5.132202 25.482599
					CHANNELS 3 Xrotation Yrotation Zrotation
					End Site
					{
						OFFSET 0.000000 22.523010 0.000000
					}
				}
				JOINT newVegas:Right_Collar
				{
					OFFSET -18.625099 8.655792 8.828100
					CHANNELS 3 Xrotation Yrotation Zrotation
					JOINT newVegas:Right_Collar1
					{
						OFFSET -14.783401 10.539993 -1.259500
						CHANNELS 3 Xrotation Yrotation Zrotation
						End Site
						{
							OFFSET 0.000000 18.199631 0.000000
						}
					}
				}
			}
		}
		JOINT newVegas:Belly
		{
			OFFSET 0.000000 -6.540398 9.014299
			CHANNELS 3 Xrotation Yrotation Zrotation
			End Site
			{
				OFFSET 0.000000 11.566666 0.000000
			}
		}
	}
	JOINT newVegas:ElvisFacialAnim_Joint
	{
		OFFSET 1.000000 -95.330101 -8.825800
		CHANNELS 3 Xrotation Yrotation Zrotation
		End Site
		{
			OFFSET 0.000000 35.315800 0.000000
		}
	}
}
MOTION
Frames: 4
Frame Time: 0.016667
-107.101433 78.423836 -2.535820 5.533778 -58.202938 2.662762 0.000000 0.000001 -0.000000 -51.245550 -27.367422 21.548318 42.838069 -4.959800 -9.588840 6.914990 -0.276793 -23.888237 0.000000 0.000001 -0.000000 -0.000000 0.000001 -0.000001 -56.671872 6.770177 -16.347318 92.868183 11.129097 -6.439180 -17.868875 -6.366531 17.987549 0.000003 0.000002 -0.000000 -0.000001 0.000004 -0.000002 15.964230 1.393353 -4.202466 15.662367 2.194510 -5.768866 15.861033 2.321220 -5.742684 -2.693305 4.804492 0.823318 -2.693296 4.804498 0.823312 -0.000003 0.000001 0.000001 -2.693366 4.804500 0.823318 -2.693245 4.804476 0.823316 0.000002 0.000000 0.000003 -0.000003 0.000001 -0.000001 -0.592716 -13.563760 6.823838 -37.598409 23.788791 -23.345657 0.137189 -73.842432 0.102623 21.507007 -12.727049 33.551822 -0.176232 -1.991300 10.659554 -0.979198 11.076311 -5.731062 -0.000000 0.000002 0.000001 13.247455 -0.979857 21.207939 -0.180145 0.297651 -20.577345 0.000001 -0.000002 0.000001 8.602431 -0.416383 9.612746 0.200401 0.617477 -19.373454 0.000001 -0.000002 -0.000000 6.158759 3.074130 -5.684667 0.025721 0.262715 -19.597358 -0.000001 0.000003 0.000002 -5.613877 7.660084 -3.352572 0.187020 0.237957 -36.060185 -0.000002 -0.000002 0.000000 -0.000003 -0.000000 -0.000000 -0.000003 -0.000000 -0.000000 -0.000003 -0.000001 0.000000 0.000002 -0.000003 0.000001 0.000003 -0.000002 0.000001 0.000002 -0.000003 0.000001 0.000002 -0.000003 0.000001 -2.118357 13.247528 13.753738 -38.399067 -0.958080 39.774186 151.512556 110.498124 -153.014392 -21.986348 0.700015 -2.641024 1.093317 1.408792 -13.987316 3.986637 -25.048822 0.080531 0.000000 0.000002 -0.000000 19.464658 11.168252 -4.447433 -0.110046 -0.329374 26.935969 -0.000001 -0.000002 -0.000004 4.244747 2.329708 4.090253 0.378196 -0.490163 35.790656 0.000001 0.000003 0.000001 -7.005502 -10.749419 14.617059 0.115667 -0.151328 35.055980 0.000001 0.000001 -0.000000 -19.412774 -20.240292 14.888250 0.269422 -0.116268 45.744840 -0.000001 0.000001 0.000002 -0.000003 0.000000 -0.000000 0.000001 -0.000002 -0.000001 -0.000003 -0.000000 0.000002 0.000003 0.000003 -0.000002 0.000003 0.000003 -0.000003 0.000003 0.000003 -0.000002 0.000003 0.000003 -0.000001 -0.000002 0.000001 -0.000003 -0.000002 0.000001 -0.000003 -0.000002 0.000001 -0.000003 -0.000002 0.000001 -0.000003 -0.000002 0.000001 -0.000003 -0.000002 0.000001 -0.000003 -0.000002 0.000001 -0.000003 -0.000000 0.000002 -0.000000 0.000000 0.000001 -0.000000 
-108.293327 78.706200 -2.327079 4.064903 -58.540254 1.411097 0.000000 0.000003 0.000000 -49.413987 -27.031580 22.512326 43.763136 -5.707767 -9.871471 5.043948 0.112113 -23.804328 0.000000 0.000000 -0.000000 -0.000000 0.000001 0.000002 -54.833612 6.241760 -16.769648 89.845927 7.337020 -6.786511 -21.750756 -7.944655 15.553642 0.000001 0.000003 -0.000001 -0.000002 0.000003 -0.000002 15.894115 1.234048 -4.180460 15.476319 1.900095 -5.988030 15.663101 2.020899 -5.953933 -2.850936 4.981203 0.642943 -2.850938 4.981212 0.642959 -0.000001 -0.000001 0.000003 -2.850830 4.981263 0.642932 -2.850870 4.981144 0.642948 -0.000000 0.000000 0.000001 -0.000001 -0.000001 0.000001 -1.370440 -14.343337 3.032925 -38.279621 22.614263 -23.089902 0.142163 -75.187822 0.108046 21.180314 -12.561882 30.726337 -0.172641 -1.962133 10.669730 -0.991722 11.049018 -5.744204 0.000001 0.000003 -0.000002 13.246165 -0.979968 21.241410 -0.180222 0.297662 -20.543865 -0.000000 -0.000001 -0.000000 8.603004 -0.416589 9.646221 0.200004 0.617159 -19.339947 0.000001 -0.000003 -0.000000 6.160621 3.072693 -5.651284 0.025778 0.262512 -19.563871 -0.000001 0.000003 -0.000000 -5.609809 7.658658 -3.319391 0.186935 0.238051 -36.026693 0.000002 -0.000003 -0.000001 0.000000 -0.000001 0.000001 0.000000 -0.000001 0.000001 -0.000000 -0.000002 0.000001 -0.000000 -0.000001 -0.000000 0.000001 -0.000001 -0.000001 -0.000000 -0.000001 -0.000000 -0.000001 -0.000000 0.000001 -2.145712 13.116406 13.287849 -38.908494 -2.796948 41.271152 150.551358 108.832692 -151.840761 -18.983474 0.814732 -0.184471 1.100675 1.316005 -14.020273 4.097932 -25.391028 -0.046756 0.000002 0.000000 -0.000002 19.480352 11.186110 -4.051267 -0.109628 -0.329628 27.333176 -0.000001 0.000000 0.000003 4.235008 2.325063 4.487366 0.380053 -0.491316 36.187780 0.000001 -0.000001 -0.000000 -7.026266 -10.770442 15.013172 0.116066 -0.154261 35.453176 0.000002 0.000001 -0.000000 -19.446518 -20.272568 15.280808 0.270972 -0.117510 46.141924 -0.000005 -0.000000 0.000000 0.000000 0.000001 -0.000000 0.000001 -0.000001 0.000000 0.000001 0.000001 0.000002 -0.000000 0.000000 0.000002 -0.000000 0.000001 0.000002 -0.000000 0.000000 0.000002 0.000000 0.000001 0.000003 -0.000000 -0.000001 -0.000000 -0.000000 -0.000001 -0.000000 -0.000000 -0.000001 -0.000000 -0.000000 -0.000001 -0.000000 -0.000000 -0.000001 -0.000000 -0.000000 -0.000001 -0.000000 -0.000000 -0.000001 -0.000000 0.000001 0.000003 -0.000000 0.000000 0.000003 0.000000 
-109.494019 78.866241 -2.208691 2.641135 -58.769611 0.276714 0.000000 0.000000 0.000000 -47.744662 -26.549393 23.472575 44.538311 -6.605252 -10.137579 3.332373 0.471951 -23.741691 0.000000 -0.000001 0.000000 -0.000000 -0.000003 0.000002 -52.765858 5.709021 -17.414486 85.801540 4.275797 -7.232586 -24.057912 -9.110111 15.010452 0.000000 -0.000000 0.000001 -0.000002 0.000001 0.000000 15.819370 1.069814 -4.160549 15.281051 1.631128 -6.174523 15.452412 1.743125 -6.133693 -3.026251 5.125552 0.462924 -3.026246 5.125556 0.462919 -0.000000 -0.000003 0.000004 -3.026242 5.125539 0.462935 -3.026292 5.125550 0.462929 -0.000000 -0.000002 0.000002 -0.000000 -0.000003 0.000002 -2.134504 -14.889222 -0.321572 -38.090835 21.313441 -23.421122 0.143822 -75.859674 0.109824 21.642686 -12.430023 28.334586 -0.171277 -1.951950 10.673362 -0.995533 11.040113 -5.747509 0.000002 -0.000004 -0.000001 13.244947 -0.980202 21.252180 -0.180220 0.297766 -20.533239 -0.000000 0.000000 -0.000000 8.603641 -0.416712 9.656907 0.199605 0.616960 -19.329306 -0.000000 -0.000001 -0.000001 6.162583 3.070920 -5.640795 0.025955 0.262523 -19.553194 -0.000001 -0.000001 0.000002 -5.608264 7.656879 -3.309135 0.186876 0.238157 -36.015977 0.000001 -0.000003 0.000000 0.000001 0.000001 0.000001 0.000001 0.000001 0.000001 0.000001 0.000001 0.000001 0.000002 -0.000001 -0.000005 0.000002 -0.000002 -0.000008 0.000002 -0.000001 -0.000005 0.000001 -0.000001 -0.000004 -2.213431 12.977067 12.820912 -38.520293 -3.822279 41.682295 149.720287 107.278086 -150.818336 -17.231147 2.319445 1.639110 1.099621 1.332544 -14.014502 4.156976 -25.569872 -0.112239 -0.000001 0.000001 0.000001 19.490592 11.198333 -3.844298 -0.109438 -0.329752 27.540771 0.000003 -0.000002 -0.000001 4.228766 2.322543 4.694875 0.380993 -0.491846 36.395384 -0.000001 -0.000003 0.000000 -7.040136 -10.784482 15.220073 0.116251 -0.155906 35.660814 0.000001 0.000001 -0.000001 -19.469251 -20.294737 15.485328 0.271738 -0.118142 46.349544 0.000000 -0.000002 -0.000001 -0.000001 0.000000 0.000002 0.000002 -0.000002 0.000000 -0.000001 0.000000 0.000003 0.000003 0.000000 -0.000003 0.000004 0.000001 -0.000001 0.000003 0.000000 -0.000003 0.000004 0.000001 -0.000001 0.000001 0.000000 0.000002 0.000001 0.000000 0.000002 0.000001 0.000000 0.000002 0.000001 0.000000 0.000002 0.000001 0.000000 0.000002 0.000001 0.000000 0.000002 0.000001 0.000000 0.000002 -0.000002 -0.000000 -0.000000 0.000000 0.000000 0.000000 
-110.756721 78.689964 -2.250803 1.289074 -58.910914 -0.686164 -0.000000 0.000003 -0.000000 -46.523284 -26.129187 24.492442 45.679568 -7.837749 -10.490288 1.534322 0.884728 -23.784684 0.000000 0.000001 -0.000000 0.000001 0.000002 -0.000000 -50.910342 5.627144 -18.635678 80.021062 3.577129 -7.649972 -22.105030 -8.796904 17.577217 -0.000000 0.000001 -0.000000 0.000001 -0.000002 -0.000002 15.740133 0.894630 -4.183508 15.077535 1.383983 -6.329468 15.230642 1.483826 -6.284083 -3.238416 5.244641 0.284151 -3.238411 5.244625 0.284155 -0.000003 0.000001 -0.000001 -3.238410 5.244643 0.284152 -3.238404 5.244635 0.284151 -0.000002 -0.000003 0.000001 -0.000003 0.000001 -0.000002 -2.761764 -14.973149 -2.599937 -36.570653 20.101428 -24.497430 0.136278 -75.533580 0.102109 22.628506 -12.613188 26.528089 -0.175611 -1.983304 10.662193 -0.950374 11.151361 -5.698986 -0.000001 0.000001 -0.000003 13.243766 -0.980664 21.119409 -0.180064 0.297931 -20.665900 0.000000 0.000002 0.000001 8.602302 -0.415813 9.524146 0.199710 0.617406 -19.462033 -0.000000 0.000001 0.000000 6.163241 3.070118 -5.773605 0.026179 0.263563 -19.685918 -0.000000 0.000001 0.000002 -5.603430 7.655372 -3.442079 0.187320 0.238781 -36.148749 -0.000000 -0.000001 -0.000002 -0.000002 -0.000000 -0.000003 -0.000002 -0.000000 -0.000003 -0.000002 -0.000001 -0.000003 -0.000000 -0.000001 -0.000000 0.000001 0.000000 -0.000002 -0.000000 -0.000001 -0.000000 -0.000000 0.000000 -0.000000 -2.248351 12.848359 12.353125 -38.156268 -4.801568 41.733221 148.594344 105.662651 -149.509521 -15.782202 4.369587 3.355033 1.092522 1.427153 -13.981080 4.180285 -25.639284 -0.137698 0.000002 0.000001 0.000001 19.497152 11.206758 -3.763929 -0.109351 -0.329815 27.621558 0.000001 0.000002 0.000002 4.225235 2.321635 4.775590 0.381452 -0.492051 36.476120 0.000001 0.000000 -0.000000 -7.049305 -10.793716 15.300481 0.116333 -0.156702 35.741526 -0.000001 -0.000001 -0.000001 -19.484404 -20.310023 15.564181 0.272077 -0.118395 46.430304 -0.000001 0.000002 -0.000001 -0.000001 0.000002 -0.000001 0.000003 0.000000 0.000002 -0.000001 0.000002 -0.000000 -0.000001 0.000001 0.000002 -0.000001 0.000001 0.000002 -0.000001 0.000001 0.000002 -0.000001 0.000001 0.000003 -0.000000 0.000002 -0.000003 -0.000000 0.000002 -0.000003 -0.000000 0.000002 -0.000003 -0.000000 0.000002 -0.000003 -0.000000 0.000002 -0.000003 -0.000000 0.000002 -0.000003 -0.000000 0.000002 -0.000003 0.000001 0.000000 -0.000000 -0.000000 0.000003 -0.000000 
